<?xml version="1.0" encoding="UTF-8"?>
<svg id="_Ñëîé_2" data-name="Ñëîé 2" xmlns="http://www.w3.org/2000/svg" viewBox="0 0 11.32 12.5">
  <defs>
    <style>
      .cls-1 {
        fill: #003f2f;
      }

      .cls-1, .cls-2 {
        fill-rule: evenodd;
      }
    </style>
  </defs>
  <path class="cls-2" d="M3.84,3.1h3.63c2.03,0,2.04-3.1,0-3.1H3.84C-1.28,0-1.28,7.8,3.84,7.8h3.63c1.06,0,1.06,1.61,0,1.61H1.53c-2.03,0-2.04,3.09,0,3.09H7.48c5.13,0,5.13-7.8,0-7.8H3.84c-1.06,0-1.06-1.61,0-1.61h0Zm0-.44c-1.64,0-1.64,2.49,0,2.49h3.63c4.54,0,4.54,6.91,0,6.91H1.53c-1.46,0-1.45-2.21,0-2.21H7.48c1.64,0,1.64-2.49,0-2.49H3.84C-.7,7.35-.7,.44,3.84,.44h3.63c1.46,0,1.45,2.21,0,2.21H3.84Z"/>
  <path class="cls-1" d="M3.84,2.21h3.63c.87,0,.88-1.33,0-1.33H3.84C-.11,.88-.11,6.91,3.84,6.91h3.63c2.21,0,2.23,3.37,0,3.37H1.53c-.87,0-.88,1.33,0,1.33H7.48c3.96,0,3.96-6.03,0-6.03H3.84c-2.21,0-2.23-3.37,0-3.37h0Zm0-.44c-2.81,0-2.78,4.26,0,4.26h3.63c3.37,0,3.37,5.14,0,5.14H1.53c-.29,0-.28-.44,0-.44H7.48c2.81,0,2.78-4.26,0-4.26H3.84C.47,6.47,.47,1.33,3.84,1.33h3.63c.29,0,.28,.44,0,.44H3.84Z"/>
</svg>