<?xml version="1.0" encoding="UTF-8"?>
<svg xmlns="http://www.w3.org/2000/svg" xmlns:xlink="http://www.w3.org/1999/xlink" viewBox="0 0 50 49">
  <defs>
    <style>
      .cls-1, .cls-2 {
        fill: #fff;
      }

      .cls-2 {
        mix-blend-mode: screen;
        opacity: .1;
      }

      .cls-3 {
        isolation: isolate;
      }

      .cls-4 {
        fill: url(#radial-gradient);
      }

      .cls-5 {
        fill: #eaeaea;
      }

      .cls-6 {
        fill: url(#radial-gradient-2);
      }

      .cls-7 {
        mask: url(#mask-1);
      }

      .cls-8 {
        mask: url(#mask);
      }
    </style>
    <radialGradient id="radial-gradient" cx="635.53" cy="1253.42" fx="635.53" fy="1253.42" r="64.44" gradientTransform="translate(267.63 119.33) rotate(-179.84) scale(.39 .06) skewX(-.44)" gradientUnits="userSpaceOnUse">
      <stop offset="0" stop-color="#fff"/>
      <stop offset=".12" stop-color="#d0d0d0"/>
      <stop offset=".3" stop-color="#929292"/>
      <stop offset=".48" stop-color="#5e5e5d"/>
      <stop offset=".64" stop-color="#363635"/>
      <stop offset=".78" stop-color="#181818"/>
      <stop offset=".91" stop-color="#070706"/>
      <stop offset="1" stop-color="#010100"/>
    </radialGradient>
    <mask id="mask" y="41.45" width="50" height="7.55" maskUnits="userSpaceOnUse">
      <path class="cls-4" d="M0,45.16c.13-2.08,11.41-3.74,25.22-3.71,13.8,.04,24.89,1.76,24.77,3.85-.06,2.08-11.37,3.74-25.19,3.7C10.98,48.96-.14,47.24,0,45.16Z"/>
    </mask>
    <mask id="mask-1" y="41.45" width="50" height="7.55" maskUnits="userSpaceOnUse">
      <path class="cls-4" d="M0,45.16c.13-2.08,11.41-3.74,25.22-3.71,13.8,.04,24.89,1.76,24.77,3.85-.06,2.08-11.37,3.74-25.19,3.7C10.98,48.96-.14,47.24,0,45.16Z"/>
    </mask>
    <radialGradient id="radial-gradient-2" cx="78.16" cy="-39.33" fx="78.16" fy="-39.33" r="137.38" gradientTransform="translate(19.14 18.66) rotate(.27) scale(.23 .25) skewX(.02)" gradientUnits="userSpaceOnUse">
      <stop offset="0" stop-color="#4845a2"/>
      <stop offset=".1" stop-color="#4c44a1"/>
      <stop offset=".21" stop-color="#5a44a1"/>
      <stop offset=".32" stop-color="#7044a1"/>
      <stop offset=".36" stop-color="#7a44a1"/>
      <stop offset=".42" stop-color="#8043a0"/>
      <stop offset=".51" stop-color="#93419f"/>
      <stop offset=".61" stop-color="#b13e9e"/>
      <stop offset=".66" stop-color="#c53d9d"/>
      <stop offset=".98" stop-color="#f9a326"/>
    </radialGradient>
  </defs>
  <g class="cls-3">
    <g id="Layer_1" data-name="Layer 1">
      <g class="cls-8">
        <path d="M50,45.3c-.06,2.08-11.37,3.74-25.19,3.7C10.98,48.96-.14,47.24,0,45.16"/>
      </g>
      <g class="cls-7">
        <path d="M0,45.16c.13-2.08,11.41-3.74,25.22-3.71,13.8,.04,24.89,1.76,24.77,3.85"/>
      </g>
      <path class="cls-5" d="M2.58,23.41C2.63,10.42,12.76-.06,25.2,0c12.44,.06,22.47,10.63,22.41,23.62"/>
      <path class="cls-5" d="M47.61,23.62c-.06,12.99-10.18,23.47-22.62,23.41-12.44-.06-22.47-10.63-22.41-23.62"/>
      <path class="cls-6" d="M6.18,14.51C9.47,6.99,16.75,1.77,25.19,1.81s15.68,5.32,18.9,12.88c1.16,2.72,1.8,5.75,1.79,8.92-.05,11.99-9.4,21.66-20.88,21.61-11.48-.05-20.74-9.82-20.69-21.8"/>
      <path class="cls-2" d="M6.18,14.51C9.47,6.99,16.75,1.77,25.19,1.81s15.68,5.32,18.9,12.88c-3.29,7.53-10.58,12.74-19.01,12.7S9.4,22.07,6.18,14.51"/>
      <g>
        <path class="cls-1" d="M30.81,35.21l-11.52-.05c-2.39-.01-4.32-2-4.31-4.44l.05-12.39c.01-2.44,1.96-4.41,4.35-4.4l11.52,.05c2.39,.01,4.32,2,4.31,4.44l-.05,12.39c-.01,2.44-1.96,4.41-4.35,4.4ZM19.37,15.75c-1.43,0-2.59,1.15-2.6,2.59l-.05,12.39c0,1.43,1.15,2.6,2.58,2.61l11.52,1.05c1.43,0,2.59-2.15,2.6-3.59l.05-12.39c0-1.43-1.15-2.6-2.57-2.61l-11.52-.05Z"/>
        <path class="cls-1" d="M25.07,30.08c-2.91-.01-5.26-2.5-5.25-5.53s2.39-5.5,5.3-5.48,5.26,2.5,5.25,5.53-2.39,5.5-5.3,5.48Zm.04-9.2c-1.95,0-3.54,1.64-3.55,3.67s1.57,3.7,3.52,3.71c1.95,0,3.54-1.64,3.55-3.67s-1.57-3.7-3.52-3.71Z"/>
        <path class="cls-1" d="M32.01,18.82c0,.71-.56,1.29-1.24,1.28s-1.23-.58-1.23-1.29,.56-1.29,1.24-1.28,1.23,.58,1.23,1.29Z"/>
      </g>
    </g>
  </g>
</svg>