<?xml version="1.0" encoding="UTF-8"?>
<svg xmlns="http://www.w3.org/2000/svg" xmlns:xlink="http://www.w3.org/1999/xlink" viewBox="0 0 50 49.66">
  <defs>
    <style>
      .cls-1, .cls-2 {
        fill: #fff;
      }

      .cls-2 {
        mix-blend-mode: screen;
        opacity: .1;
      }

      .cls-3 {
        isolation: isolate;
      }

      .cls-4 {
        fill: url(#radial-gradient);
      }

      .cls-5 {
        fill: #eaeaea;
      }

      .cls-6 {
        fill: url(#radial-gradient-2);
      }

      .cls-7 {
        mask: url(#mask);
      }
    </style>
    <radialGradient id="radial-gradient" cx="633.52" cy="937.81" fx="633.52" fy="937.81" r="64.44" gradientTransform="translate(268.08 101.06) rotate(179.89) scale(.39 .06) skewX(-.45)" gradientUnits="userSpaceOnUse">
      <stop offset="0" stop-color="#fff"/>
      <stop offset=".12" stop-color="#d0d0d0"/>
      <stop offset=".3" stop-color="#929292"/>
      <stop offset=".48" stop-color="#5e5e5d"/>
      <stop offset=".64" stop-color="#363635"/>
      <stop offset=".78" stop-color="#181818"/>
      <stop offset=".91" stop-color="#070706"/>
      <stop offset="1" stop-color="#010100"/>
    </radialGradient>
    <mask id="mask" y="42.01" width="50" height="7.66" maskUnits="userSpaceOnUse">
      <path class="cls-4" d="M0,45.88c.12-2.11,11.4-3.85,25.21-3.88,13.8-.03,24.89,1.67,24.79,3.78-.05,2.11-11.35,3.85-25.18,3.87C10.99,49.69-.13,48,0,45.88Z"/>
    </mask>
    <radialGradient id="radial-gradient-2" cx="77.56" cy="36.89" fx="77.56" fy="36.89" r="137.38" gradientTransform="translate(19.16) scale(.23 .25)" gradientUnits="userSpaceOnUse">
      <stop offset=".07" stop-color="#59c9c4"/>
      <stop offset=".23" stop-color="#52c5c3"/>
      <stop offset=".44" stop-color="#3fbbc2"/>
      <stop offset=".7" stop-color="#21aac0"/>
      <stop offset=".93" stop-color="#0098bf"/>
    </radialGradient>
  </defs>
  <g class="cls-3">
    <g id="Layer_1" data-name="Layer 1">
      <g>
        <g class="cls-7">
          <path d="M0,45.88c.12-2.11,11.4-3.85,25.21-3.88,13.8-.03,24.89,1.67,24.79,3.78-.05,2.11-11.35,3.85-25.18,3.87C10.99,49.69-.13,48,0,45.88Z"/>
        </g>
        <ellipse class="cls-5" cx="25" cy="23.83" rx="22.52" ry="23.83"/>
        <path class="cls-6" d="M45.78,23.83c0,12.15-9.31,22-20.78,22S4.22,35.99,4.22,23.83c0-3.22,.65-6.28,1.83-9.04C9.3,7.16,16.56,1.83,25,1.83s15.7,5.32,18.96,12.97c1.18,2.76,1.83,5.81,1.83,9.04Z"/>
        <path class="cls-2" d="M43.96,14.8c-3.26,7.64-10.52,12.97-18.96,12.97S9.3,22.44,6.04,14.8C9.3,7.16,16.56,1.83,25,1.83s15.7,5.32,18.96,12.97Z"/>
        <path class="cls-1" d="M33.58,18.38s1.69-1.45,1.83-2.64c0,0-1.15,.88-2.87,1.16,0,0-1.58-2.07-4.54-1.34-2.95,.74-3.57,4.23-3.22,5.63,0,0-5.13,.09-9.31-4.94,0,0-2.04,3.61,1.48,6.39,0,0-1.69-.11-2.06-.57,0,0-.16,3.78,3.67,4.72,0,0-.91,.34-2.09,.2,0,0,.99,3.12,4.24,3.21,0,0-2.95,2.59-6.76,2.02,0,0,4.02,3.13,9.5,1.89,.26-.06,.53-.13,.79-.21,3.47-1.12,6.48-3.5,8.15-6.96,.11-.22,.22-.46,.32-.7,.72-1.69,1.24-3.77,1.13-6.18,0,0,1.72-1.28,2.25-2.41,0,0-1.1,.54-2.5,.74Z"/>
      </g>
    </g>
  </g>
</svg>