<?xml version="1.0" encoding="UTF-8"?>
<svg xmlns="http://www.w3.org/2000/svg" xmlns:xlink="http://www.w3.org/1999/xlink" viewBox="0 0 50 49.66">
  <defs>
    <style>
      .cls-1, .cls-2 {
        fill: #fff;
      }

      .cls-2 {
        mix-blend-mode: screen;
        opacity: .1;
      }

      .cls-3 {
        isolation: isolate;
      }

      .cls-4 {
        fill: url(#radial-gradient);
      }

      .cls-5 {
        fill: #eaeaea;
      }

      .cls-6 {
        fill: url(#radial-gradient-2);
      }

      .cls-7 {
        mask: url(#mask);
      }
    </style>
    <radialGradient id="radial-gradient" cx="633.52" cy="937.81" fx="633.52" fy="937.81" r="64.44" gradientTransform="translate(268.08 101.06) rotate(179.89) scale(.39 .06) skewX(-.45)" gradientUnits="userSpaceOnUse">
      <stop offset="0" stop-color="#fff"/>
      <stop offset=".12" stop-color="#d0d0d0"/>
      <stop offset=".3" stop-color="#929292"/>
      <stop offset=".48" stop-color="#5e5e5d"/>
      <stop offset=".64" stop-color="#363635"/>
      <stop offset=".78" stop-color="#181818"/>
      <stop offset=".91" stop-color="#070706"/>
      <stop offset="1" stop-color="#010100"/>
    </radialGradient>
    <mask id="mask" y="42.01" width="50" height="7.66" maskUnits="userSpaceOnUse">
      <path class="cls-4" d="M0,45.89c.12-2.11,11.4-3.85,25.21-3.88,13.8-.03,24.89,1.67,24.79,3.78-.05,2.11-11.35,3.85-25.18,3.87C10.99,49.69-.13,48,0,45.89Z"/>
    </mask>
    <radialGradient id="radial-gradient-2" cx="77.56" cy="36.89" fx="77.56" fy="36.89" r="137.38" gradientTransform="translate(19.16) scale(.23 .25)" gradientUnits="userSpaceOnUse">
      <stop offset=".07" stop-color="#42bd5c"/>
      <stop offset=".27" stop-color="#3cb658"/>
      <stop offset=".55" stop-color="#2ea44d"/>
      <stop offset=".88" stop-color="#17863c"/>
      <stop offset=".9" stop-color="#16853c"/>
    </radialGradient>
  </defs>
  <g class="cls-3">
    <g id="Layer_1" data-name="Layer 1">
      <g>
        <g class="cls-7">
          <path d="M0,45.89c.12-2.11,11.4-3.85,25.21-3.88,13.8-.03,24.89,1.67,24.79,3.78-.05,2.11-11.35,3.85-25.18,3.87C10.99,49.69-.13,48,0,45.89Z"/>
        </g>
        <ellipse class="cls-5" cx="25" cy="23.84" rx="22.52" ry="23.84"/>
        <path class="cls-6" d="M45.78,23.84c0,12.15-9.31,22-20.78,22S4.22,35.99,4.22,23.84c0-3.22,.65-6.28,1.83-9.04C9.3,7.16,16.56,1.83,25,1.83s15.7,5.32,18.96,12.97c1.18,2.76,1.83,5.81,1.83,9.04Z"/>
        <path class="cls-2" d="M43.96,14.8c-3.26,7.64-10.52,12.97-18.96,12.97S9.3,22.44,6.04,14.8C9.3,7.16,16.56,1.83,25,1.83s15.7,5.32,18.96,12.97Z"/>
        <g>
          <path class="cls-1" d="M25.13,11.22c-6.47,0-11.73,5.57-11.73,12.42,0,2.25,.56,4.42,1.64,6.33l-1.89,6.48,6.47-1.86c1.69,.95,3.58,1.45,5.51,1.45,6.47,0,11.73-5.57,11.73-12.41s-5.26-12.42-11.73-12.42Zm0,22.8c-1.93,0-3.72-.59-5.24-1.6l-.14,.04-3.75,1.07,1.13-3.87c-1.15-1.7-1.82-3.78-1.82-6.03,0-5.74,4.39-10.39,9.81-10.39s9.81,4.65,9.81,10.39-4.39,10.39-9.81,10.39Z"/>
          <path class="cls-1" d="M23.19,20.58s.35,.56,0,1.01c-.35,.45-.63,.8-.63,.8,0,0-.31,.24,0,.71,.31,.47,1.57,2.52,3.75,3.43,0,0,.67,.3,.96-.39l.69-.95s.16-.24,.69,0c.53,.24,2.2,1.1,2.2,1.1,0,0,.31,.11,.24,.58-.06,.47-.22,2.31-2.63,2.5,0,0-2.32,.09-4.93-2.05-1.63-1.33-2.78-3-3.42-4.16-.04-.08-.08-.15-.12-.22-.33-.71-.58-1.48-.54-2.24,0-.09,0-.18,0-.27,.05-.83,.37-1.81,1.55-2.38,0,0,.96-.15,1.12,0l1.06,2.52Z"/>
        </g>
      </g>
    </g>
  </g>
</svg>